HIERARCHY
ROOT Hips
{
  OFFSET 54.7727 57.4377 -8.37502
  CHANNELS 6 Xposition Yposition Zposition Zrotation Xrotation Yrotation
  JOINT spine
  {
    OFFSET 0 6.84637 0.3937
    CHANNELS 3 Zrotation Xrotation Yrotation
    JOINT spine1
    {
      OFFSET 0 9.49621 0
      CHANNELS 3 Zrotation Xrotation Yrotation
      JOINT spine2
      {
        OFFSET 0 9.09909 0
        CHANNELS 3 Zrotation Xrotation Yrotation
        JOINT Neck
        {
          OFFSET 0 23.3612 1.11378
          CHANNELS 3 Zrotation Xrotation Yrotation
          JOINT Head
          {
            OFFSET 0 7.05802 0
            CHANNELS 3 Zrotation Xrotation Yrotation
            End Site
            {
              OFFSET 0 17.0844 -5.63419
            }
          }
        }
        JOINT RightShoulder
        {
          OFFSET -3.83136 9.82631 -0.533491
          CHANNELS 3 Zrotation Xrotation Yrotation
          JOINT RightArm
          {
            OFFSET 0 12.8881 0
            CHANNELS 3 Zrotation Xrotation Yrotation
            JOINT RightArmRoll
            {
              OFFSET 0 6.50617 0
              CHANNELS 3 Zrotation Xrotation Yrotation
              JOINT RightForeArm
              {
                OFFSET 0 18.9501 0
                CHANNELS 3 Zrotation Xrotation Yrotation
                JOINT RightForeArmRoll
                {
                  OFFSET 0 7.30093 0
                  CHANNELS 3 Zrotation Xrotation Yrotation
                  JOINT RightHand
                  {
                    OFFSET 0 14.6514 0
                    CHANNELS 3 Zrotation Xrotation Yrotation
                    End Site
                    {
                      OFFSET 0 0 0
                    }
                  }
                }
              }
            }
          }
        }
        JOINT LeftShoulder
        {
          OFFSET 3.83136 9.82631 -0.533491
          CHANNELS 3 Zrotation Xrotation Yrotation
          JOINT LeftArm
          {
            OFFSET 0 12.8881 0
            CHANNELS 3 Zrotation Xrotation Yrotation
            JOINT LeftArmRoll
            {
              OFFSET 0 6.50617 0
              CHANNELS 3 Zrotation Xrotation Yrotation
              JOINT LeftForeArm
              {
                OFFSET 0 18.9501 0
                CHANNELS 3 Zrotation Xrotation Yrotation
                JOINT LeftForeArmRoll
                {
                  OFFSET 0 7.30093 0
                  CHANNELS 3 Zrotation Xrotation Yrotation
                  JOINT LeftHand
                  {
                    OFFSET 0 14.6514 0
                    CHANNELS 3 Zrotation Xrotation Yrotation
                    End Site
                    {
                      OFFSET 0 0 0
                    }
                  }
                }
              }
            }
          }
        }
      }
    }
  }
  JOINT RightUpLeg
  {
    OFFSET -6.06837 -1.11278 -0.933477
    CHANNELS 3 Zrotation Xrotation Yrotation
    JOINT RightUpLegRoll
    {
      OFFSET 0 17.1796 0
      CHANNELS 3 Zrotation Xrotation Yrotation
      JOINT RightLeg
      {
        OFFSET 0 -21.2743 0
        CHANNELS 3 Zrotation Xrotation Yrotation
        JOINT RightLegRoll
        {
          OFFSET 0 21.3439 0
          CHANNELS 3 Zrotation Xrotation Yrotation
          JOINT RightFoot
          {
            OFFSET 0 17.7652 0
            CHANNELS 3 Zrotation Xrotation Yrotation
            JOINT RightToeBase
            {
              OFFSET 0 14.8508 0
              CHANNELS 3 Zrotation Xrotation Yrotation
              End Site
              {
                OFFSET 0.0062947 7.19214 -0.829004
              }
            }
          }
        }
      }
    }
  }
  JOINT LeftUpLeg
  {
    OFFSET 6.06837 -1.11278 -0.933477
    CHANNELS 3 Zrotation Xrotation Yrotation
    JOINT LeftUpLegRoll
    {
      OFFSET 0 17.1797 0
      CHANNELS 3 Zrotation Xrotation Yrotation
      JOINT LeftLeg
      {
        OFFSET 0 21.2742 0
        CHANNELS 3 Zrotation Xrotation Yrotation
        JOINT LeftLegRoll
        {
          OFFSET 0 21.5412 0
          CHANNELS 3 Zrotation Xrotation Yrotation
          JOINT LeftFoot
          {
            OFFSET 0 17.5679 0
            CHANNELS 3 Zrotation Xrotation Yrotation
            JOINT LeftToeBase
            {
              OFFSET 0 14.8508 0
              CHANNELS 3 Zrotation Xrotation Yrotation
              End Site
              {
                OFFSET -0.0282102 7.19214 -0.829004
              }
            }
          }
        }
      }
    }
  }
}
MOTION
Frames: 9
Frame Time: 0.00208333
54.8198 62.9122 -1.97612 -2.03761 26.9673 -0.161315 0.445385 1.98765 0.660726 0.862191 7.98472 1.25047 0.849328 9.62955 1.2383 -14.7136 38.1371 5.57094 12.9399 0.915645 -0.83429 33.4664 -2.63148 1.20114 127.739 21.2388 -52.4349 7.09226e-006 -7.60243e-008 -2.03775e-006 23.363 61.7889 -14.7691 4.75027e-006 2.24837e-006 -2.99999 8.02887 -4.95149 0.69769 -39.6844 -6.14018 2.68546 -133.797 43.0616 60.3914 -4.13636e-006 7.54153e-007 1.47015e-006 -44.1009 20.2222 3.64122 -3.97667e-006 1.75052e-007 2.99999 -8.02898 -4.95146 -0.697688 6.3515 79.2941 173.621 180 7.01627e-015 179.357 177.194 67.3888 179.192 -7.93365e-007 3.1421e-006 1.45595 -18.2394 66.3975 18.2682 8.13649 25.2327 -3.48774 -53.4168 71.1224 -130.138 4.54188e-006 -4.6773e-006 -0.474514 -10.6234 -71.9365 -4.40819 -6.43784e-007 7.63522e-007 -1.41833 19.055 67.6311 -19.2288 -8.13649 25.2327 3.48774 
54.8105 62.8279 -2.03196 -2.04134 26.8155 -0.182925 0.445159 1.98549 0.659695 0.860804 7.98068 1.24849 0.847961 9.62552 1.23634 -14.8024 38.0934 5.63746 13.015 0.93202 -0.803354 33.5045 -2.5878 1.23891 127.685 21.2714 -52.4238 7.09226e-006 -7.60243e-008 -2.03775e-006 23.3886 61.6985 -14.7471 4.75027e-006 2.24837e-006 -2.99999 8.02887 -4.95149 0.69769 -39.7319 -6.15178 2.69888 -133.757 43.0565 60.2335 -4.13636e-006 7.54153e-007 1.47015e-006 -43.9983 20.2583 3.66759 -3.97667e-006 1.75052e-007 2.99999 -8.02898 -4.95146 -0.697688 6.4001 79.339 173.605 180 7.01626e-015 179.352 177.203 67.4756 179.185 -7.93365e-007 3.1421e-006 1.45893 -18.2262 66.3767 18.2534 8.13649 25.2327 -3.48774 -53.4571 71.1171 -130.091 4.54188e-006 -4.6773e-006 -0.476729 -10.5158 -72.0566 -4.33579 -6.43784e-007 7.63522e-007 -1.42475 19.0449 67.6173 -19.2183 -8.13649 25.2327 3.48774 
54.8028 62.7598 -2.07367 -2.04492 26.6627 -0.205167 0.444938 1.98327 0.65868 0.859436 7.97653 1.24656 0.846612 9.62136 1.23442 -14.893 38.0498 5.70512 13.0907 0.948848 -0.772185 33.5427 -2.54352 1.27723 127.631 21.3042 -52.4117 7.09226e-006 -7.60243e-008 -2.03775e-006 23.4137 61.6068 -14.7243 4.75027e-006 2.24837e-006 -2.99999 8.02887 -4.95149 0.69769 -39.78 -6.16333 2.71227 -133.716 43.0513 60.075 -4.13636e-006 7.54153e-007 1.47015e-006 -43.8955 20.2942 3.69392 -3.97667e-006 1.75052e-007 2.99999 -8.02898 -4.95146 -0.697688 6.44854 79.3849 173.588 180 7.01626e-015 179.348 177.213 67.5632 179.178 -7.93365e-007 3.1421e-006 1.46192 -18.2127 66.3556 18.2384 8.13649 25.2327 -3.48774 -53.4977 71.113 -130.042 4.54188e-006 -4.6773e-006 -0.478917 -10.405 -72.1775 -4.26085 -6.43784e-007 7.63522e-007 -1.43119 19.0349 67.6036 -19.2079 -8.13649 25.2327 3.48774 
54.7993 62.6746 -2.12737 -2.0483 26.5089 -0.227572 0.444736 1.98104 0.657695 0.858138 7.97235 1.24471 0.845331 9.61718 1.23258 -14.9835 38.0068 5.77238 13.1655 0.965203 -0.741435 33.5813 -2.49922 1.31547 127.576 21.3372 -52.3992 7.09226e-006 -7.60243e-008 -2.03775e-006 23.438 61.5146 -14.7009 4.75027e-006 2.24837e-006 -2.99999 8.02887 -4.95149 0.69769 -39.8287 -6.17456 2.72542 -133.676 43.0465 59.9166 -4.13636e-006 7.54153e-007 1.47015e-006 -43.7926 20.3301 3.72023 -3.97667e-006 1.75052e-007 2.99999 -8.02898 -4.95146 -0.697688 6.49932 79.4313 173.57 180 7.01625e-015 179.344 177.224 67.6516 179.17 -7.93365e-007 3.1421e-006 1.46493 -18.1993 66.3345 18.2234 8.13649 25.2327 -3.48774 -53.5382 71.1103 -129.993 4.54188e-006 -4.6773e-006 -0.481083 -10.2912 -72.2989 -4.1836 -6.43784e-007 7.63522e-007 -1.43765 19.0249 67.59 -19.1975 -8.13649 25.2327 3.48774 
54.8009 62.6031 -2.17023 -2.05145 26.3539 -0.249677 0.444568 1.97884 0.656755 0.856959 7.96825 1.24296 0.84417 9.61308 1.23085 -15.072 37.965 5.83769 13.2381 0.980156 -0.711755 33.6204 -2.45551 1.35302 127.521 21.3702 -52.3865 7.09226e-006 -7.60243e-008 -2.03775e-006 23.4609 61.4225 -14.6767 4.75027e-006 2.24837e-006 -2.99999 8.02887 -4.95149 0.69769 -39.8782 -6.18523 2.73813 -133.636 43.0424 59.7587 -4.13636e-006 7.54153e-007 1.47015e-006 -43.6896 20.3661 3.74654 -3.97667e-006 1.75052e-007 2.99999 -8.02898 -4.95146 -0.697688 6.5549 79.478 173.546 180 7.01624e-015 179.34 177.235 67.7409 179.163 -7.93365e-007 3.1421e-006 1.46797 -18.1859 66.3135 18.2086 8.13649 25.2327 -3.48774 -53.5783 71.1097 -129.943 4.54188e-006 -4.6773e-006 -0.483231 -10.175 -72.4202 -4.10428 -6.43784e-007 7.63522e-007 -1.4441 19.015 67.5765 -19.1872 -8.13649 25.2327 3.48774 
54.8018 62.5278 -2.21921 -2.0543 26.1977 -0.27102 0.444449 1.97672 0.655876 0.855951 7.96432 1.24136 0.843178 9.60915 1.22926 -15.1566 37.9248 5.89953 13.3068 0.992778 -0.683796 33.6604 -2.41296 1.38927 127.465 21.4033 -52.3741 7.09226e-006 -7.60243e-008 -2.03775e-006 23.4822 61.3314 -14.6516 4.75027e-006 2.24837e-006 -2.99999 8.02887 -4.95149 0.69769 -39.9287 -6.19509 2.75017 -133.597 43.0395 59.602 -4.13636e-006 7.54153e-007 1.47015e-006 -43.5866 20.4022 3.77287 -3.97667e-006 1.75052e-007 2.99999 -8.02898 -4.95146 -0.697688 6.6179 79.5245 173.514 180 7.01624e-015 179.336 177.245 67.8311 179.155 -7.93365e-007 3.1421e-006 1.47104 -18.1729 66.2931 18.1941 8.13649 25.2327 -3.48774 -53.6175 71.1116 -129.894 4.54188e-006 -4.6773e-006 -0.485365 -10.0566 -72.5412 -4.02317 -6.43784e-007 7.63522e-007 -1.45055 19.0052 67.5632 -19.177 -8.13649 25.2327 3.48774 
54.785 62.4423 -2.2689 -2.05679 26.0402 -0.291143 0.444394 1.97473 0.655072 0.855164 7.96066 1.23992 0.842405 9.60549 1.22784 -15.2354 37.8867 5.95636 13.3702 1.00214 -0.65821 33.7014 -2.37218 1.4236 127.407 21.4363 -52.3624 7.09226e-006 -7.60243e-008 -2.03775e-006 23.5014 61.2418 -14.6258 4.75027e-006 2.24837e-006 -2.99999 8.02887 -4.95149 0.69769 -39.9803 -6.20388 2.76134 -133.559 43.0383 59.4471 -4.13636e-006 7.54153e-007 1.47015e-006 -43.4836 20.4386 3.79923 -3.97667e-006 1.75052e-007 2.99999 -8.02898 -4.95146 -0.697688 6.69093 79.5708 173.472 180 7.01623e-015 179.331 177.256 67.9223 179.148 -7.93365e-007 3.1421e-006 1.47416 -18.1605 66.2734 18.1801 8.13649 25.2327 -3.48774 -53.6554 71.1165 -129.845 4.54188e-006 -4.6773e-006 -0.487491 -9.93662 -72.6614 -3.94054 -6.43784e-007 7.63522e-007 -1.45696 18.9956 67.5501 -19.1669 -8.13649 25.2327 3.48774 
54.7868 62.3685 -2.31518 -2.05887 25.8813 -0.309587 0.444417 1.97292 0.654359 0.854647 7.95736 1.23869 0.841901 9.60219 1.22662 -15.3065 37.8513 6.00665 13.4269 1.00732 -0.635648 33.7438 -2.33374 1.45539 127.348 21.4692 -52.3518 7.09226e-006 -7.60243e-008 -2.03775e-006 23.5179 61.1545 -14.5991 4.75027e-006 2.24837e-006 -2.99999 8.02887 -4.95149 0.69769 -40.0333 -6.21136 2.77142 -133.522 43.0391 59.2945 -4.13636e-006 7.54153e-007 1.47015e-006 -43.3806 20.4753 3.82565 -3.97667e-006 1.75052e-007 2.99999 -8.02898 -4.95146 -0.697688 6.7766 79.6163 173.416 180 7.01623e-015 179.327 177.267 68.0146 179.14 -7.93365e-007 3.1421e-006 1.47732 -18.1488 66.2548 18.1668 8.13649 25.2327 -3.48774 -53.6917 71.1247 -129.797 4.54188e-006 -4.6773e-006 -0.489612 -9.81534 -72.7804 -3.85668 -6.43784e-007 7.63522e-007 -1.46334 18.9861 67.5373 -19.1568 -8.13649 25.2327 3.48774 
54.7837 62.2945 -2.35649 -2.06044 25.721 -0.325899 0.444534 1.97134 0.653751 0.854452 7.95453 1.2377 0.841717 9.59936 1.22562 -15.3682 37.819 6.04889 13.4752 1.00738 -0.616761 33.7878 -2.29826 1.48404 127.288 21.5019 -52.3427 7.09226e-006 -7.60243e-008 -2.03775e-006 23.5316 61.0702 -14.5714 4.75027e-006 2.24837e-006 -2.99999 8.02887 -4.95149 0.69769 -40.0876 -6.21727 2.7802 -133.486 43.0425 59.1448 -4.13636e-006 7.54153e-007 1.47015e-006 -43.2776 20.5125 3.85215 -3.97667e-006 1.75052e-007 2.99999 -8.02898 -4.95146 -0.697688 6.87764 79.6608 173.344 180 7.01622e-015 179.323 177.277 68.108 179.133 -7.93365e-007 3.1421e-006 1.48054 -18.1379 66.2375 18.1544 8.13649 25.2327 -3.48774 -53.7261 71.1369 -129.751 4.54188e-006 -4.6773e-006 -0.491732 -9.69324 -72.8978 -3.7719 -6.43784e-007 7.63522e-007 -1.46966 18.9769 67.5247 -19.1468 -8.13649 25.2327 3.48774 
